<?xml version="1.0" encoding="utf-8"?>
<!-- Generator: Adobe Illustrator 25.4.1, SVG Export Plug-In . SVG Version: 6.00 Build 0)  -->
<svg version="1.1" id="Layer_1" xmlns="http://www.w3.org/2000/svg" xmlns:xlink="http://www.w3.org/1999/xlink" x="0px" y="0px"
	 viewBox="0 0 50 50" style="enable-background:new 0 0 50 50;" xml:space="preserve">
<style type="text/css">
	.st0{fill:#14213D;}
</style>
<path class="st0" d="M18.6,11.9H7.8c-0.3,0-0.5-0.2-0.5-0.5v0c0-0.3,0.2-0.5,0.5-0.5h10.8c0.3,0,0.5,0.2,0.5,0.5v0
	C19.1,11.7,18.9,11.9,18.6,11.9z"/>
<path class="st0" d="M7.4,10.3H5.3C5,10.3,4.7,10,4.7,9.7v0c0-0.3,0.2-0.5,0.5-0.5h2.2C7.7,9.2,8,9.5,8,9.7v0
	C8,10,7.7,10.3,7.4,10.3z"/>
<path class="st0" d="M17.6,17.4H8.8c-0.3,0-0.5-0.2-0.5-0.5v0c0-0.3,0.2-0.5,0.5-0.5h8.9c0.3,0,0.5,0.2,0.5,0.5v0
	C18.1,17.2,17.9,17.4,17.6,17.4z"/>
<path class="st0" d="M17.1,19.2H9c-0.3,0-0.5-0.2-0.5-0.5l0,0c0-0.3,0.2-0.5,0.5-0.5h8.1c0.3,0,0.5,0.2,0.5,0.5l0,0
	C17.6,18.9,17.4,19.2,17.1,19.2z"/>
<path class="st0" d="M19.1,11.5l-1,5.5c-0.1,0.3-0.3,0.5-0.6,0.4l0,0c-0.3-0.1-0.5-0.3-0.4-0.6l1-5.5c0.1-0.3,0.3-0.5,0.6-0.4h0
	C19,10.9,19.2,11.2,19.1,11.5z"/>
<path class="st0" d="M8.5,18.7L6.9,9.8C6.9,9.6,7.1,9.3,7.4,9.2l0,0C7.6,9.2,7.9,9.4,8,9.7l1.6,8.9c0.1,0.3-0.1,0.6-0.4,0.6h0
	C8.8,19.2,8.5,19,8.5,18.7z"/>
<circle class="st0" cx="10.4" cy="20.7" r="1"/>
<circle class="st0" cx="15.9" cy="20.7" r="1"/>
</svg>
