<svg version="1.1" id="Layer_1" xmlns="http://www.w3.org/2000/svg" x="0" y="0" viewBox="0 0 273.2 96.3" style="enable-background:new 0 0 273.2 96.3" xml:space="preserve">
  <style>
    .st0{fill:#fca311}.st1{fill:#14213d}
  </style>
  <path class="st0" d="M25.7 5.6C32.4 2 40 0 48.1 0c26.6 0 48.1 21.5 48.1 48.1 0 18.4-10.3 34.3-25.4 42.4V49.9c-37.3 26-44-27.3-45.1-44.3z"/>
  <path class="st0" d="M59 67.3V95c-3.5.8-7.1 1.2-10.9 1.2-4.9 0-9.6-.7-14.1-2.1V63.9c11.2 9.9 25 3.4 25 3.4zM0 48.1C0 29.8 10.3 13.8 25.4 5.7v84.9C10.3 82.5 0 66.5 0 48.1z"/>
  <g>
    <path class="st1" d="M135.4 14.9v29.4h-7.2V32.2h-11.1v12.1H110V14.9h7.2v11.5h11.1V14.9h7.1zM146.9 42.6c-2.3-1.3-4.1-3.1-5.5-5.4-1.4-2.3-2-4.9-2-7.8s.7-5.5 2-7.7 3.2-4.1 5.5-5.4c2.3-1.3 4.8-1.9 7.6-1.9s5.3.6 7.6 1.9c2.3 1.3 4.1 3.1 5.4 5.4 1.3 2.3 2 4.9 2 7.7s-.7 5.5-2 7.8-3.2 4.1-5.4 5.4c-2.3 1.3-4.8 1.9-7.6 1.9s-5.3-.6-7.6-1.9zm13.2-6.9c1.4-1.6 2.1-3.6 2.1-6.2s-.7-4.7-2.1-6.2c-1.4-1.5-3.3-2.3-5.6-2.3-2.4 0-4.3.8-5.7 2.3-1.4 1.5-2.1 3.6-2.1 6.2s.7 4.7 2.1 6.2c1.4 1.5 3.3 2.3 5.7 2.3 2.3 0 4.2-.8 5.6-2.3zM206.8 14.9v29.4h-7.2V26.6L193 44.2h-5.8l-6.6-17.7v17.7h-7.2V14.9h8.5l8.3 20.4 8.2-20.4h8.4zM219.1 20.6v5.9h9.6V32h-9.6v6.5H230v5.7h-18V14.9h18v5.7h-10.9zM129.1 54c2.3 1.2 4.1 3 5.4 5.2s1.9 4.8 1.9 7.7c0 2.9-.6 5.4-1.9 7.7-1.3 2.2-3.1 4-5.4 5.2-2.3 1.2-5 1.8-8.1 1.8h-11V52.1h11c3.1 0 5.8.6 8.1 1.9zm-2.3 19.1c1.5-1.5 2.3-3.6 2.3-6.3 0-2.7-.8-4.8-2.3-6.3s-3.6-2.3-6.3-2.3h-3.4v17.1h3.4c2.7 0 4.8-.7 6.3-2.2zM147.6 57.9v5.9h9.6v5.5h-9.6v6.5h10.8v5.7h-18V52.1h18v5.7h-10.8zM163.7 59c1.3-2.3 3-4 5.3-5.3s4.8-1.9 7.6-1.9c3.5 0 6.5.9 9 2.8s4.1 4.4 5 7.5h-7.9c-.6-1.2-1.4-2.2-2.5-2.8-1.1-.6-2.3-1-3.7-1-2.2 0-4 .8-5.4 2.3-1.4 1.5-2.1 3.6-2.1 6.2s.7 4.6 2.1 6.2c1.4 1.5 3.2 2.3 5.4 2.3 1.4 0 2.6-.3 3.7-1 1.1-.6 1.9-1.6 2.5-2.8h7.9c-.8 3.2-2.5 5.7-5 7.5-2.5 1.8-5.5 2.7-9 2.7-2.8 0-5.4-.6-7.6-1.9-2.2-1.3-4-3-5.3-5.3-1.3-2.3-1.9-4.8-1.9-7.7.1-2.9.7-5.5 1.9-7.8zM201.3 79.9c-2.3-1.3-4.1-3.1-5.5-5.4-1.4-2.3-2-4.9-2-7.8s.7-5.5 2-7.7 3.2-4.1 5.5-5.4c2.3-1.3 4.8-1.9 7.6-1.9s5.3.6 7.6 1.9c2.3 1.3 4.1 3.1 5.4 5.4 1.3 2.3 2 4.9 2 7.7s-.7 5.5-2 7.8-3.2 4.1-5.4 5.4c-2.3 1.3-4.8 1.9-7.6 1.9s-5.3-.6-7.6-1.9zm13.2-7c1.4-1.6 2.1-3.6 2.1-6.2s-.7-4.7-2.1-6.2c-1.4-1.5-3.3-2.3-5.6-2.3-2.4 0-4.3.8-5.7 2.3-1.4 1.5-2.1 3.6-2.1 6.2s.7 4.7 2.1 6.2c1.4 1.5 3.3 2.3 5.7 2.3 2.3.1 4.2-.7 5.6-2.3zM242.9 81.5l-6.1-11.1h-1.7v11.1h-7.2V52.1h12c2.3 0 4.3.4 5.9 1.2 1.6.8 2.9 1.9 3.7 3.3.8 1.4 1.2 3 1.2 4.7 0 2-.6 3.7-1.7 5.2s-2.7 2.6-4.9 3.3l6.8 11.6h-8zm-7.8-16.1h4.4c1.3 0 2.3-.3 3-1 .7-.6 1-1.5 1-2.7 0-1.1-.3-2-1-2.6s-1.6-1-3-1h-4.4v7.3zM262.4 57.9v5.9h9.6v5.5h-9.6v6.5h10.8v5.7h-18V52.1h18v5.7h-10.8z"/>
  </g>
</svg>
